<svg id="Calque_1" data-name="Calque 1" xmlns="http://www.w3.org/2000/svg" xmlns:xlink="http://www.w3.org/1999/xlink" viewBox="0 0 640 480"><defs><style>.cls-1,.cls-6{fill:none;}.cls-2{fill:#6a1b9a;}.cls-3{font-size:72px;fill:#fff;font-family:Roboto-Bold, Roboto;font-weight:700;}.cls-4{clip-path:url(#clip-path);}.cls-5{fill:#3fa33f;}.cls-6{stroke:#fcfcfc;stroke-miterlimit:10;stroke-width:3px;}</style><clipPath id="clip-path"><rect class="cls-1" x="255.22" y="203.09" width="69.31" height="64.73"/></clipPath></defs><title>logo</title><rect class="cls-2" width="640" height="480"/><text class="cls-3" transform="translate(43.64 257.95)"><tspan xml:space="preserve">Bread      Express</tspan></text><g class="cls-4"><path class="cls-5" d="M324.53,211.18c0,8.09-11.44,19.09-25.64,32.37C281.21,259.73,266,272,259.72,266.2c-3.47-2.59-4.51-6.47-4.51-10.35,0-7.12,1.73-11.33,3.47-13.92.69-.64,16.29,1.62,20.1-1.95,2.07-1.93-12.13-7.43-18-2.91.69-8.42,8-9.38,11.42-9.71,4.51-.33,18.72,4.21,21.5,1.29,3.11-3.24-17-10.67-21.15-7.12,1.73-7.12,8.66-8.41,13.51-8.09,4.17.33,16.64,5.5,19.77,2.92,3.11-2.28-11.1-9.4-15.6-7.78,2.76-2.59,12.47-5.5,21.82-5.5,5.91,0,12.48,3.24,12.48,8.09Zm0,0"/></g><path class="cls-6" d="M455.57,298a742.56,742.56,0,0,0-213,12.85c-16.91,3.53-33.14,7.56-48.65,11.93"/></svg>